<svg width="32" height="32" viewBox="0 0 32 32" fill="none" xmlns="http://www.w3.org/2000/svg">
<path d="M27.6472 9.11076H22.4536V4.2544C23.6587 4.55997 24.7669 5.1655 25.675 6.01463C26.5831 6.86376 27.2615 7.92886 27.6472 9.11076ZM9.58013 4.2544V9.11076H4.33016C4.71989 7.92155 5.40657 6.85142 6.32524 6.00162C7.24391 5.15183 8.3642 4.55045 9.58013 4.2544ZM20.3357 4H11.6981V9.11076H20.3357V4ZM28 11.2288H4.00497C3.99834 11.2894 3.99834 11.3505 4.00497 11.4111V20.5875C4.00495 22.5482 4.78177 24.429 6.16538 25.8182C7.54898 27.2075 9.42664 27.9919 11.3873 27.9998H20.5613C22.526 27.9967 24.4094 27.2147 25.7986 25.8252C27.1878 24.4358 27.9695 22.5523 27.9724 20.5875V11.4111C27.9883 11.3515 27.9975 11.2904 28 11.2288ZM20.4065 19.7967C20.2956 20.0057 20.1418 20.1889 19.9553 20.3343L15.7193 23.2983C15.4947 23.4551 15.2318 23.548 14.9585 23.5671H14.8169C14.5682 23.5708 14.3223 23.5136 14.1008 23.4004C13.8793 23.2872 13.6889 23.1216 13.5461 22.9179C13.3901 22.6839 13.3061 22.4079 13.3061 22.1259V16.5939C13.3049 16.3179 13.3829 16.0479 13.5329 15.8163C13.6889 15.6039 13.8917 15.4299 14.1257 15.3087C14.3657 15.2007 14.6249 15.1467 14.8877 15.1527C15.1409 15.1647 15.3881 15.2367 15.6077 15.3651L19.8401 17.9199C20.0472 18.0395 20.2207 18.2097 20.3443 18.4145C20.4679 18.6193 20.5376 18.8521 20.5469 19.0911C20.5661 19.3359 20.5169 19.5795 20.4053 19.7979" fill="white"/>
</svg>
