<svg width="32" height="32" viewBox="0 0 32 32" fill="none" xmlns="http://www.w3.org/2000/svg">
<path d="M24.1453 12.2719L24.4137 11.6545C24.8855 10.5622 25.7496 9.68643 26.8355 9.19998L27.6634 8.83017C27.7639 8.78396 27.849 8.70992 27.9086 8.61682C27.9683 8.52372 28 8.41547 28 8.30491C28 8.19434 27.9683 8.08609 27.9086 7.99299C27.849 7.89989 27.7639 7.82585 27.6634 7.77964L26.8813 7.43165C25.7681 6.93134 24.8893 6.02318 24.4257 4.89424L24.1497 4.22771C24.1092 4.12446 24.0385 4.03582 23.9468 3.97334C23.8552 3.91086 23.7468 3.87744 23.6359 3.87744C23.525 3.87744 23.4166 3.91086 23.325 3.97334C23.2333 4.03582 23.1626 4.12446 23.1221 4.22771L22.8461 4.89315C22.383 6.0223 21.5045 6.93086 20.3916 7.43165L19.6083 7.78073C19.5082 7.82707 19.4234 7.9011 19.364 7.99408C19.3045 8.08706 19.273 8.1951 19.273 8.30545C19.273 8.4158 19.3045 8.52384 19.364 8.61682C19.4234 8.7098 19.5082 8.78383 19.6083 8.83017L20.4374 9.19889C21.523 9.68583 22.3867 10.562 22.8581 11.6545L23.1264 12.2719C23.3228 12.7236 23.9479 12.7236 24.1453 12.2719ZM17.5127 9.70288C17.8116 10.1756 18.2203 10.525 18.7389 10.7512L19.3552 11.0207C19.977 11.2919 20.4218 11.7276 20.6894 12.3276L21.0581 13.1566C21.8512 14.9424 24.2119 15.2228 25.5002 14.001L25.5995 14.133C25.7511 14.3352 25.8278 14.5838 25.8164 14.8363C25.8051 15.0888 25.7064 15.3295 25.5373 15.5173L15.7193 26.4262C15.617 26.5398 15.492 26.6306 15.3524 26.6927C15.2127 26.7549 15.0616 26.787 14.9088 26.787C14.7559 26.787 14.6048 26.7549 14.4652 26.6927C14.3255 26.6306 14.2005 26.5398 14.0982 26.4262L4.28023 15.5173C4.1111 15.3295 4.01244 15.0888 4.0011 14.8363C3.98976 14.5838 4.06644 14.3352 4.21805 14.133L7.49072 9.76943C7.59233 9.63394 7.72409 9.52398 7.87557 9.44824C8.02704 9.3725 8.19407 9.33307 8.36343 9.33307H17.3153C17.3713 9.45961 17.4367 9.58288 17.5116 9.70288" fill="white"/>
</svg>
