<svg width="32" height="32" viewBox="0 0 32 32" fill="none" xmlns="http://www.w3.org/2000/svg">
<path fill-rule="evenodd" clip-rule="evenodd" d="M4 15.9999C4 16.4787 4.38863 16.8674 4.86747 16.8674H17.5591L15.291 18.8105C15.2044 18.8846 15.1333 18.9751 15.0817 19.0767C15.03 19.1783 14.9989 19.2891 14.9901 19.4027C14.9813 19.5163 14.995 19.6306 15.0303 19.7389C15.0657 19.8473 15.122 19.9476 15.1961 20.0342C15.2703 20.1208 15.3607 20.1919 15.4623 20.2435C15.5639 20.2951 15.6747 20.3263 15.7884 20.3351C15.902 20.3439 16.0162 20.3302 16.1246 20.2949C16.2329 20.2595 16.3333 20.2032 16.4199 20.129L20.468 16.6592C20.5633 16.5777 20.6397 16.4766 20.6922 16.3628C20.7446 16.249 20.7717 16.1252 20.7717 15.9999C20.7717 15.8746 20.7446 15.7508 20.6922 15.637C20.6397 15.5231 20.5633 15.422 20.468 15.3406L16.4199 11.8707C16.245 11.721 16.0178 11.6469 15.7884 11.6647C15.5589 11.6825 15.3458 11.7907 15.1961 11.9656C15.0464 12.1404 14.9723 12.3676 14.9901 12.5971C15.0079 12.8266 15.1161 13.0396 15.291 13.1893L17.558 15.1324H4.86863C4.63856 15.1324 4.41791 15.2238 4.25523 15.3865C4.09255 15.5492 4.00116 15.7698 4.00116 15.9999" fill="white"/>
<path d="M12.9629 13.3975H13.4001C13.209 12.857 13.2017 12.2686 13.3793 11.7236C13.5569 11.1786 13.9095 10.7075 14.3823 10.3834C14.8551 10.0593 15.4217 9.90041 15.9941 9.93134C16.5665 9.96227 17.1126 10.1813 17.5478 10.5545L21.596 14.0243C21.8809 14.2687 22.1095 14.5717 22.2663 14.9127C22.4231 15.2537 22.5043 15.6246 22.5043 15.9999C22.5043 16.3752 22.4231 16.746 22.2663 17.087C22.1095 17.428 21.8809 17.7311 21.596 17.9754L17.5478 21.4453C17.1126 21.8184 16.5665 22.0375 15.9941 22.0684C15.4217 22.0993 14.8551 21.9404 14.3823 21.6163C13.9095 21.2922 13.5569 20.8211 13.3793 20.2761C13.2017 19.7311 13.209 19.1427 13.4001 18.6023H12.9629V20.6264C12.9629 23.8973 12.9629 25.5339 13.9796 26.5495C14.9951 27.5661 16.6317 27.5661 19.9027 27.5661H21.0593C24.3302 27.5661 25.9668 27.5661 26.9824 26.5495C27.999 25.5339 27.999 23.8973 27.999 20.6264V11.3734C27.999 8.10241 27.999 6.46579 26.9824 5.45027C25.9668 4.43359 24.3302 4.43359 21.0593 4.43359H19.9027C16.6317 4.43359 14.9951 4.43359 13.9796 5.45027C12.9629 6.46579 12.9629 8.10241 12.9629 11.3734V13.3975Z" fill="white"/>
</svg>
