<svg width="32" height="32" viewBox="0 0 32 32" fill="none" xmlns="http://www.w3.org/2000/svg">
<path d="M7.6 5.28662H24.4C25.3548 5.28662 26.2705 5.66591 26.9456 6.34104C27.6207 7.01617 28 7.93184 28 8.88662V19.6866C28 20.6414 27.6207 21.5571 26.9456 22.2322C26.2705 22.9073 25.3548 23.2866 24.4 23.2866H7.6C6.64522 23.2866 5.72955 22.9073 5.05442 22.2322C4.37928 21.5571 4 20.6414 4 19.6866V8.88662C4 7.93184 4.37928 7.01617 5.05442 6.34104C5.72955 5.66591 6.64522 5.28662 7.6 5.28662ZM12.4 24.4866H19.6C19.9183 24.4866 20.2235 24.613 20.4485 24.8381C20.6736 25.0631 20.8 25.3684 20.8 25.6866C20.8 26.0049 20.6736 26.3101 20.4485 26.5351C20.2235 26.7602 19.9183 26.8866 19.6 26.8866H12.4C12.0817 26.8866 11.7765 26.7602 11.5515 26.5351C11.3264 26.3101 11.2 26.0049 11.2 25.6866C11.2 25.3684 11.3264 25.0631 11.5515 24.8381C11.7765 24.613 12.0817 24.4866 12.4 24.4866Z" fill="white"/>
</svg>
