<svg width="32" height="32" viewBox="0 0 32 32" fill="none" xmlns="http://www.w3.org/2000/svg">
<path fill-rule="evenodd" clip-rule="evenodd" d="M20.9644 7.27343L23.1604 9.46944C26.3872 12.6975 28 14.3103 28 16.3143C28 18.3195 26.3872 19.9323 23.1604 23.1591C19.9323 26.3872 18.3195 28 16.3143 28C14.3103 28 12.6963 26.3872 9.46948 23.1603L7.27346 20.9643C5.41945 19.1091 4.49184 18.1827 4.14744 16.9791C3.80184 15.7755 4.09704 14.4975 4.68744 11.9427L5.02705 10.469C5.52265 8.31864 5.77105 7.24343 6.50666 6.50662C7.24226 5.76982 8.31867 5.52262 10.4691 5.02701L11.9427 4.68621C14.4987 4.09701 15.7755 3.8018 16.9791 4.14621C18.1827 4.49181 19.1103 5.41942 20.9644 7.27343ZM14.9751 18.7935C14.1675 17.9871 14.1735 16.8279 14.6571 15.9099C14.5374 15.737 14.482 15.5276 14.5006 15.3181C14.5192 15.1085 14.6106 14.9122 14.7589 14.763C14.9072 14.6139 15.103 14.5214 15.3124 14.5016C15.5218 14.4818 15.7315 14.536 15.9051 14.6547C16.3131 14.4387 16.7607 14.3235 17.2071 14.3283C17.4458 14.3305 17.6739 14.4275 17.8411 14.5978C18.0083 14.7682 18.101 14.998 18.0987 15.2367C18.0965 15.4754 17.9995 15.7034 17.8292 15.8706C17.6588 16.0378 17.429 16.1305 17.1903 16.1283C16.9125 16.1386 16.6499 16.258 16.4595 16.4607C15.9951 16.9251 16.1163 17.3907 16.2471 17.5215C16.3791 17.6523 16.8435 17.7735 17.3079 17.3091C18.2487 16.3683 19.8735 16.0563 20.914 17.0967C21.7216 17.9043 21.7156 19.0635 21.232 19.9815C21.3509 20.1545 21.4057 20.3636 21.3868 20.5727C21.3678 20.7817 21.2764 20.9776 21.1283 21.1264C20.9803 21.2752 20.7848 21.3676 20.5758 21.3875C20.3669 21.4074 20.1575 21.3537 19.9839 21.2355C19.4455 21.531 18.8208 21.6294 18.2175 21.5139C17.9836 21.4659 17.7784 21.3269 17.6469 21.1275C17.5155 20.9281 17.4687 20.6846 17.5167 20.4507C17.5648 20.2168 17.7038 20.0115 17.9032 19.8801C18.1026 19.7487 18.346 19.7019 18.5799 19.7499C18.7923 19.7943 19.1355 19.7247 19.4295 19.4307C19.8939 18.9651 19.7727 18.5007 19.6419 18.3699C19.5099 18.2391 19.0455 18.1179 18.5811 18.5823C17.6403 19.5231 16.0155 19.8351 14.9751 18.7935ZM13.6239 13.9515C13.8467 13.7286 14.0235 13.464 14.144 13.1727C14.2646 12.8815 14.3266 12.5694 14.3266 12.2542C14.3265 11.9391 14.2644 11.627 14.1437 11.3358C14.023 11.0446 13.8462 10.7801 13.6233 10.5573C13.4004 10.3344 13.1358 10.1577 12.8446 10.0371C12.5534 9.91655 12.2413 9.85453 11.9261 9.85458C11.6109 9.85464 11.2988 9.91677 11.0076 10.0374C10.7165 10.1581 10.4519 10.3349 10.2291 10.5579C9.77906 11.008 9.5263 11.6185 9.52641 12.2551C9.52653 12.8916 9.7795 13.5021 10.2297 13.9521C10.6799 14.4021 11.2904 14.6549 11.9269 14.6547C12.5635 14.6546 13.1739 14.4017 13.6239 13.9515Z" fill="white"/>
</svg>
