<svg width="32" height="32" viewBox="0 0 32 32" fill="none" xmlns="http://www.w3.org/2000/svg">
<g clip-path="url(#clip0_783_14617)">
<path d="M4 8.5956C4 10.0629 5.23036 12.728 6.52075 14.1054C7.90114 15.5428 7.63107 15.9021 6.13062 14.6444C5.05031 13.7461 4.96028 14.1054 5.77052 15.8722C6.43071 17.3395 7.06089 17.9084 8.86143 18.7169C10.4519 19.4057 11.1121 20.0644 9.70168 19.5254C9.22153 19.3458 8.74139 19.2859 8.65137 19.3757C8.50132 19.4955 10.3919 22.49 11.4122 23.8076C11.6222 24.047 12.9126 22.2504 14.4131 19.7051C15.1933 18.3277 15.9135 17.2197 16.0035 17.2496C16.0936 17.2496 16.7237 18.2678 17.444 19.5554C18.7643 21.891 20.3548 24.077 20.5949 23.8076C20.6549 23.7177 21.3451 22.6996 22.1253 21.5617C23.1456 20.0345 23.3857 19.4356 23.0856 19.3757C22.8456 19.3158 22.3354 19.4356 21.9753 19.6153C21.4952 19.8848 21.3752 19.8848 21.5552 19.6153C21.6752 19.4356 22.3954 18.9864 23.1757 18.657C25.2763 17.7587 26.1165 16.8005 26.6266 14.7043C26.8366 13.8359 26.8366 13.8359 25.9065 14.6444C24.496 15.8123 23.9258 15.5727 25.2763 14.3749C26.5366 13.2071 27.587 11.1409 27.887 9.10466C28.097 7.78709 28.097 7.78709 27.0768 9.28432C26.1765 10.6019 25.7564 10.9013 23.8058 11.6799C20.8349 12.8777 20.7149 12.9376 19.6646 14.6145C18.7343 16.0818 18.7343 16.0818 17.504 13.6563C16.8437 12.3087 16.1836 11.2307 16.0635 11.2307C15.952 11.2307 15.2833 12.2489 14.6231 13.4766C13.9929 14.7043 13.3627 15.7225 13.2727 15.7225C13.1827 15.7225 12.6725 15.0637 12.1624 14.2552C11.6222 13.4467 10.842 12.6681 10.3919 12.4884C9.91174 12.3087 8.8014 11.8596 7.87113 11.5302C6.13062 10.9013 5.29037 10.2126 4.51015 8.68543C4.03001 7.78709 4.03001 7.78709 4 8.5956Z" fill="white"/>
</g>
<defs>
<clipPath id="clip0_783_14617">
<rect width="24" height="15.8419" fill="white" transform="translate(4 8)"/>
</clipPath>
</defs>
</svg>
