<svg width="32" height="32" viewBox="0 0 32 32" fill="none" xmlns="http://www.w3.org/2000/svg">
<path d="M6.4 10.1998C6.4 8.87605 7.47625 7.7998 8.8 7.7998H19.6C20.9238 7.7998 22 8.87605 22 10.1998V11.3998H23.9013C24.5388 11.3998 25.15 11.6511 25.6 12.1011L27.2988 13.7998C27.7488 14.2498 28 14.8611 28 15.4986V20.9998C28 22.3236 26.9238 23.3998 25.6 23.3998H25.4763C25.0863 24.7836 23.8113 25.7998 22.3 25.7998C20.7888 25.7998 19.5175 24.7836 19.1238 23.3998H15.2763C14.8863 24.7836 13.6113 25.7998 12.1 25.7998C10.5888 25.7998 9.3175 24.7836 8.92375 23.3998H8.8C7.47625 23.3998 6.4 22.3236 6.4 20.9998V19.1998H4.9C4.40125 19.1998 4 18.7986 4 18.2998C4 17.8011 4.40125 17.3998 4.9 17.3998H9.1C9.59875 17.3998 10 16.9986 10 16.4998C10 16.0011 9.59875 15.5998 9.1 15.5998H4.9C4.40125 15.5998 4 15.1986 4 14.6998C4 14.2011 4.40125 13.7998 4.9 13.7998H11.5C11.9988 13.7998 12.4 13.3986 12.4 12.8998C12.4 12.4011 11.9988 11.9998 11.5 11.9998H4.9C4.40125 11.9998 4 11.5986 4 11.0998C4 10.6011 4.40125 10.1998 4.9 10.1998H6.4ZM25.6 17.3998V15.4986L23.9013 13.7998H22V17.3998H25.6ZM13.6 22.4998C13.6 21.6711 12.9288 20.9998 12.1 20.9998C11.2713 20.9998 10.6 21.6711 10.6 22.4998C10.6 23.3286 11.2713 23.9998 12.1 23.9998C12.9288 23.9998 13.6 23.3286 13.6 22.4998ZM22.3 23.9998C23.1288 23.9998 23.8 23.3286 23.8 22.4998C23.8 21.6711 23.1288 20.9998 22.3 20.9998C21.4713 20.9998 20.8 21.6711 20.8 22.4998C20.8 23.3286 21.4713 23.9998 22.3 23.9998Z" fill="white"/>
</svg>
