<svg width="32" height="32" viewBox="0 0 32 32" fill="none" xmlns="http://www.w3.org/2000/svg">
<path fill-rule="evenodd" clip-rule="evenodd" d="M17.5168 4.04593C17.7021 4.10619 17.8635 4.22354 17.9781 4.38117C18.0926 4.53879 18.1543 4.72861 18.1543 4.92345V12.6156H24.6157C24.786 12.6155 24.953 12.6625 25.0982 12.7515C25.2435 12.8404 25.3613 12.9678 25.4386 13.1195C25.5159 13.2712 25.5498 13.4414 25.5364 13.6111C25.523 13.7809 25.4629 13.9437 25.3628 14.0814L15.5169 27.6196C15.4024 27.7773 15.2409 27.8948 15.0555 27.9551C14.8702 28.0155 14.6705 28.0156 14.4851 27.9555C14.2997 27.8954 14.138 27.7781 14.0234 27.6205C13.9087 27.4629 13.8469 27.273 13.8467 27.0781V19.3859H7.38533C7.21483 19.3862 7.0476 19.3392 6.90217 19.2502C6.75675 19.1612 6.63881 19.0337 6.56145 18.8817C6.48408 18.7298 6.4503 18.5594 6.46386 18.3894C6.47742 18.2195 6.53779 18.0566 6.63827 17.9189L16.4842 4.38069C16.5989 4.22297 16.7606 4.10562 16.9461 4.04548C17.1316 3.98534 17.3314 3.9855 17.5168 4.04593Z" fill="white"/>
</svg>
