<svg width="32" height="32" viewBox="0 0 32 32" fill="none" xmlns="http://www.w3.org/2000/svg">
<path d="M14.6577 11.6707V16.5807C14.6577 17.0476 14.9112 17.4879 15.3114 17.7281L19.4742 20.1964C19.9546 20.4766 20.5683 20.3165 20.8485 19.8495C21.1287 19.3692 20.9819 18.7555 20.5016 18.4753L16.6724 16.1937V11.6573C16.659 11.1237 16.2054 10.67 15.6583 10.67C15.1113 10.67 14.6577 11.1237 14.6577 11.6707ZM28 12.6714V5.61326C28 5.01286 27.2795 4.71933 26.8659 5.14628L24.491 7.52122C23.2411 6.27133 21.7311 5.31243 20.0683 4.71282C18.4056 4.11321 16.631 3.88766 14.8711 4.05221C9.2807 4.55922 4.67759 9.05559 4.06384 14.646C3.73941 17.7806 4.66022 20.9172 6.62762 23.379C8.59503 25.8407 11.4513 27.4305 14.5803 27.8052C17.7093 28.1799 20.8602 27.3095 23.3533 25.3819C25.8463 23.4543 27.4817 20.6239 27.9066 17.5013C28 16.7007 27.3729 16.0069 26.5724 16.0069C25.9053 16.0069 25.3449 16.5006 25.2648 17.1544C24.6911 21.8109 20.6751 25.4133 15.8585 25.3466C10.9085 25.2799 6.73231 21.1037 6.65225 16.1404C6.5722 10.9369 10.8017 6.66731 15.9919 6.66731C18.567 6.66731 20.9019 7.72135 22.5964 9.40249L19.8078 12.191C19.3808 12.618 19.6744 13.3385 20.2748 13.3385H27.3329C27.7065 13.3385 28 13.0449 28 12.6714Z" fill="white"/>
</svg>
