<svg width="32" height="32" viewBox="0 0 32 32" fill="none" xmlns="http://www.w3.org/2000/svg">
<path d="M10.0849 4.73155C10.0408 4.52482 9.92712 4.33947 9.76279 4.2065C9.59846 4.07353 9.39347 4.00098 9.18208 4.00098C8.97069 4.00098 8.76571 4.07353 8.60138 4.2065C8.43705 4.33947 8.32334 4.52482 8.27924 4.73155C7.99368 6.08059 7.60226 6.9902 7.06068 7.63764C6.53264 8.27277 5.79412 8.7368 4.66049 9.07283C4.46971 9.12945 4.30235 9.2462 4.18332 9.40568C4.0643 9.56516 4 9.75883 4 9.95783C4 10.1568 4.0643 10.3505 4.18332 10.51C4.30235 10.6694 4.46971 10.7862 4.66049 10.8428C5.74981 11.1653 6.48217 11.6023 7.01883 12.2275C7.56534 12.8627 7.98137 13.7784 8.27924 15.1841C8.32334 15.3908 8.43705 15.5762 8.60138 15.7092C8.76571 15.8421 8.97069 15.9147 9.18208 15.9147C9.39347 15.9147 9.59846 15.8421 9.76279 15.7092C9.92712 15.5762 10.0408 15.3908 10.0849 15.1841C10.3828 13.7772 10.7988 12.8627 11.3453 12.2275C11.882 11.6023 12.6131 11.1653 13.7049 10.8428C13.8957 10.7862 14.0631 10.6694 14.1821 10.51C14.3011 10.3505 14.3654 10.1568 14.3654 9.95783C14.3654 9.75883 14.3011 9.56516 14.1821 9.40568C14.0631 9.2462 13.8957 9.12945 13.7049 9.07283C12.6144 8.75034 11.882 8.31338 11.3453 7.6881C10.7988 7.05297 10.3828 6.13721 10.0849 4.73155ZM20.3048 8.73311C20.2562 8.5318 20.1412 8.35271 19.9785 8.22462C19.8157 8.09653 19.6146 8.02688 19.4075 8.02688C19.2004 8.02688 18.9993 8.09653 18.8366 8.22462C18.6738 8.35271 18.5589 8.5318 18.5102 8.73311C17.8283 11.5543 17.1058 13.2553 16.083 14.4419C15.0736 15.6137 13.6865 16.3817 11.4426 17.1399C11.2597 17.2018 11.1007 17.3194 10.9882 17.4763C10.8756 17.6332 10.8151 17.8214 10.8151 18.0145C10.8151 18.2076 10.8756 18.3958 10.9882 18.5527C11.1007 18.7095 11.2597 18.8272 11.4426 18.889C13.7862 19.6805 15.1918 20.5162 16.1839 21.7102C17.192 22.9238 17.8603 24.6089 18.5102 27.2946C18.5589 27.4959 18.6738 27.675 18.8366 27.8031C18.9993 27.9312 19.2004 28.0008 19.4075 28.0008C19.6146 28.0008 19.8157 27.9312 19.9785 27.8031C20.1412 27.675 20.2562 27.4959 20.3048 27.2946C20.9867 24.4747 21.7105 22.7736 22.7321 21.5871C23.7414 20.4153 25.1286 19.6472 27.3725 18.889C27.5554 18.8272 27.7143 18.7095 27.8269 18.5527C27.9395 18.3958 28 18.2076 28 18.0145C28 17.8214 27.9395 17.6332 27.8269 17.4763C27.7143 17.3194 27.5554 17.2018 27.3725 17.1399C25.0252 16.3473 23.622 15.5152 22.6312 14.3213C21.6243 13.1101 20.9572 11.4263 20.3048 8.73311Z" fill="white"/>
</svg>
